<svg width="79" height="26" viewBox="0 0 79 26" fill="none" xmlns="http://www.w3.org/2000/svg">
<path fill-rule="evenodd" clip-rule="evenodd" d="M68.1801 6.00391H62.635C62.3857 6.00391 62.1365 6.19482 62.1365 6.51307V11.0313C62.1365 12.6862 62.1365 16.2051 62.1365 16.2051L56.5292 6.44952C56.4045 6.19482 56.0927 6.00391 55.7816 6.00391H50.1738C49.9247 6.00391 49.6753 6.19505 49.6753 6.51307V24.8431C49.6753 25.0976 49.9867 25.35 50.236 25.35H55.7813C56.0305 25.35 56.2798 25.1588 56.2798 24.8408V15.4994L61.8872 24.9046C62.0734 25.1759 62.3234 25.35 62.635 25.35H68.1801C68.4293 25.35 68.6786 25.159 68.6786 24.841V6.51307C68.6786 6.25837 68.4915 6.00391 68.1801 6.00391Z" fill="#5493E7"/>
<mask id="mask0_1458_4780" style="mask-type:alpha" maskUnits="userSpaceOnUse" x="71" y="6" width="8" height="20">
<path fill-rule="evenodd" clip-rule="evenodd" d="M71.2371 6.15527H78.299V25.3487H71.2371V6.15527Z" fill="white"/>
</mask>
<g mask="url(#mask0_1458_4780)">
<path fill-rule="evenodd" clip-rule="evenodd" d="M74.7742 7.06267C73.7554 7.05452 72.5452 6.83099 71.2371 6.15527V24.8429C71.2371 25.0958 71.4297 25.3487 71.7507 25.3487H72.7442H77.7855C77.8191 25.3487 77.8527 25.3452 77.8855 25.3389C77.9139 25.3337 77.94 25.3256 77.9657 25.3165C77.9691 25.3153 77.9726 25.3144 77.9759 25.3132C78.0034 25.303 78.0287 25.2901 78.0531 25.2759C78.0568 25.2736 78.0609 25.2715 78.0646 25.2692C78.0843 25.2568 78.1027 25.2431 78.12 25.2282C78.1304 25.2195 78.1404 25.2111 78.1501 25.2018C78.1595 25.1923 78.168 25.1825 78.1766 25.1724C78.1917 25.1552 78.2057 25.1372 78.2184 25.1179C78.2208 25.1139 78.2229 25.11 78.2253 25.1062C78.2397 25.0825 78.2525 25.0575 78.2632 25.0305C78.2643 25.0272 78.265 25.0237 78.2665 25.0202C78.2757 24.9951 78.284 24.9692 78.2889 24.9415C78.2956 24.9091 78.2991 24.876 78.2991 24.8429V6.62797V6.15527C76.9959 6.82842 75.7902 7.05288 74.7742 7.06267Z" fill="#5493E7"/>
</g>
<path fill-rule="evenodd" clip-rule="evenodd" d="M78.3471 3.46619C78.3471 1.38676 76.8952 0 74.6796 0C72.4641 0 71.0125 1.30956 71.0125 3.46619C71.0125 5.95222 78.2337 5.96856 78.3471 3.46619Z" fill="#5493E7"/>
<path fill-rule="evenodd" clip-rule="evenodd" d="M37.5065 19.4351C35.5387 19.4351 33.9434 17.7525 33.9434 15.6769C33.9434 13.6016 35.5387 11.919 37.5065 11.919C39.4743 11.919 41.0695 13.6016 41.0695 15.6769C41.0695 17.7525 39.4743 19.4351 37.5065 19.4351ZM37.5065 6.00391C31.7065 6.00391 27.0046 10.3348 27.0046 15.6769C27.0046 21.0193 31.7065 25.35 37.5065 25.35C43.3065 25.35 48.0083 21.0193 48.0083 15.6769C48.0083 10.3348 43.3065 6.00391 37.5065 6.00391Z" fill="#5493E7"/>
<mask id="mask1_1458_4780" style="mask-type:alpha" maskUnits="userSpaceOnUse" x="0" y="6" width="26" height="20">
<path fill-rule="evenodd" clip-rule="evenodd" d="M0 6.11816H25.778V25.3502H0V6.11816Z" fill="white"/>
</mask>
<g mask="url(#mask1_1458_4780)">
<path fill-rule="evenodd" clip-rule="evenodd" d="M22.7259 6.62279C22.664 6.37153 22.4157 6.12003 22.1052 6.12003H16.0869C15.7769 6.12003 15.5286 6.37153 15.4667 6.62279C15.4667 6.62279 13.5548 14.1752 13.0236 16.1117C12.9458 16.3942 12.8971 16.5587 12.889 16.5587C12.8271 16.5587 10.3116 6.62093 10.3116 6.62093C10.2497 6.36966 10.0013 6.11816 9.69113 6.11816H3.6728C3.36258 6.11816 3.11427 6.36966 3.05214 6.62093L0.0119066 24.8456C-0.0502282 25.0969 0.136176 25.3481 0.44616 25.3481H6.0926C6.40282 25.3481 6.6509 25.0969 6.6509 24.8456L7.553 15.1255L10.4977 24.8456C10.6218 25.0971 10.8701 25.3484 11.1803 25.3484H12.1443V25.3502H14.5979C14.9079 25.3502 15.1562 25.099 15.2805 24.8475L18.225 15.1271L19.1271 24.8475C19.1271 25.0987 19.3752 25.35 19.6856 25.35H25.3318C25.6421 25.35 25.8282 25.0987 25.7661 24.8475L22.7259 6.62279Z" fill="#5493E7"/>
</g>
</svg>
